<svg width="230" height="158" viewBox="0 0 230 158" fill="none" xmlns="http://www.w3.org/2000/svg">
<line x1="34.1421" y1="114.536" x2="23.5355" y2="125.142" stroke="#8FC1E5" stroke-width="5" stroke-linecap="round"/>
<line x1="76.2666" y1="114.536" x2="51.5179" y2="139.284" stroke="#8FC1E5" stroke-width="5" stroke-linecap="round"/>
<line x1="181.427" y1="114.536" x2="156.678" y2="139.284" stroke="#8FC1E5" stroke-width="5" stroke-linecap="round"/>
<line x1="209.409" y1="114.536" x2="198.803" y2="125.142" stroke="#8FC1E5" stroke-width="5" stroke-linecap="round"/>
<path d="M136 96H107.387L93 113.483L112.398 130.157L93 158L136 130.157L116.44 113.483L136 96Z" fill="#FABF02"/>
<path d="M93 158L136 130.157L116.5 113.483L136 96H125L107 113.483L126.5 130.157L93 158Z" fill="#E1AC02"/>
<path d="M10 60H216V96.8146L214.453 97L21.5 96.0059L11 92.5053L10 60Z" fill="#BCBCBC"/>
<path d="M62 72.2128C62 89.4512 48.0245 93.6873 30.5245 93.1879C14.5 102.427 0 87.195 0 72.2128C0 54.9745 13.4911 41 30.75 41C48.0089 41 62 54.9745 62 72.2128Z" fill="#BCBCBC"/>
<path d="M202.336 59.3614C197.869 76.0322 184.874 70.4706 168.204 66.0036C151.533 61.5367 137.499 59.856 141.965 43.1852C146.432 26.5144 163.568 16.6212 180.239 21.0881C196.91 25.555 206.803 42.6906 202.336 59.3614Z" fill="#BCBCBC"/>
<path fill-rule="evenodd" clip-rule="evenodd" d="M59.2663 88.5088C36.2776 74.943 19.0447 64.4897 31.7608 41.1046C34.2988 40.9817 36.9014 41.175 39.5249 41.7163C56.4277 45.2041 67.3061 61.7177 63.8225 78.6004C62.9511 82.8234 61.3877 86.073 59.2663 88.5088Z" fill="#939393" fill-opacity="0.5"/>
<path d="M161 62.5C161 97.0178 133.018 91 98.5 91C63.9822 91 36 97.0178 36 62.5C36 27.9822 63.9822 0 98.5 0C133.018 0 161 27.9822 161 62.5Z" fill="#BCBCBC"/>
<path d="M229.409 75.5001C229.409 88.5 212.5 110.5 208.576 85.1667C197.07 85.1667 187.742 87.006 187.742 75.5001C187.742 63.9941 197.07 54.6667 208.576 54.6667C220.082 54.6667 229.409 62.5002 229.409 75.5001Z" fill="#BCBCBC"/>
<path d="M202.336 59.3614C197.869 76.0322 184.875 70.4706 168.204 66.0036C151.533 61.5367 137.499 59.856 141.966 43.1852C146.432 26.5144 163.568 16.6212 180.239 21.0881C196.91 25.555 206.803 42.6906 202.336 59.3614Z" fill="#ADADAD"/>
<path d="M229.409 75.5001C229.409 86.9386 215.818 105.001 210 92C209.206 90.2253 209.047 88.2095 208.576 85.1667C197.07 85.1667 187.742 87.006 187.742 75.5001C187.742 63.9941 197.07 54.6667 208.576 54.6667C220.082 54.6667 229.409 62.5002 229.409 75.5001Z" fill="#ADADAD"/>
<rect x="21" y="95" width="1" height="1" fill="#BCBCBC"/>
<ellipse cx="166" cy="52.5" rx="28" ry="29.5" fill="#BCBCBC"/>
<path d="M226 81.0959C226 86.3892 223.412 92.5302 220 95.1631C216.258 98.0506 211.422 96.6703 205.5 96.6703C194.178 96.6703 185 92.1946 185 81.0959C185 69.9972 194.178 61 205.5 61C216.822 61 226 69.9972 226 81.0959Z" fill="#BCBCBC"/>
</svg>
